<svg width="67" height="75" viewBox="0 0 67 75" fill="none" xmlns="http://www.w3.org/2000/svg">
<path d="M58.5 75L33.5 58.3333L8.5 75V8.33333C8.5 6.1232 9.25255 4.00358 10.5921 2.44078C11.9316 0.877973 13.7485 0 15.6429 0H51.3571C53.2515 0 55.0684 0.877973 56.4079 2.44078C57.7475 4.00358 58.5 6.1232 58.5 8.33333V75Z" fill="#6969DA"/>
<path d="M30.2847 38.859C30.8677 39.6393 31.6116 40.2849 32.4658 40.7521C33.3201 41.2193 34.2647 41.4971 35.2356 41.5667C36.2065 41.6363 37.181 41.496 38.0931 41.1555C39.0051 40.8149 39.8333 40.282 40.5215 39.5929L44.5944 35.5158C45.831 34.2342 46.5152 32.5178 46.4997 30.7361C46.4843 28.9544 45.7704 27.2501 44.5117 25.9903C43.2531 24.7304 41.5505 24.0157 39.7707 24.0003C37.9908 23.9848 36.2761 24.6697 34.9958 25.9075L32.6606 28.2314" fill="#6969DA"/>
<path d="M35.7153 36.141C35.1323 35.3607 34.3884 34.7151 33.5342 34.2479C32.6799 33.7807 31.7353 33.5029 30.7644 33.4333C29.7935 33.3637 28.819 33.504 27.9069 33.8445C26.9949 34.1851 26.1667 34.718 25.4785 35.4071L21.4056 39.4842C20.169 40.7658 19.4848 42.4822 19.5003 44.2639C19.5157 46.0456 20.2296 47.7499 21.4883 49.0097C22.7469 50.2696 24.4495 50.9843 26.2293 50.9997C28.0092 51.0152 29.7239 50.3303 31.0042 49.0925L33.3258 46.7686" fill="#6969DA"/>
<path d="M30.2847 38.859C30.8677 39.6393 31.6116 40.2849 32.4658 40.7521C33.3201 41.2193 34.2647 41.4971 35.2356 41.5667C36.2065 41.6363 37.181 41.496 38.0931 41.1555C39.0051 40.8149 39.8333 40.282 40.5215 39.5929L44.5944 35.5158C45.831 34.2342 46.5152 32.5178 46.4997 30.7361C46.4843 28.9544 45.7704 27.2501 44.5117 25.9903C43.2531 24.7304 41.5505 24.0157 39.7707 24.0003C37.9908 23.9848 36.2761 24.6697 34.9958 25.9075L32.6606 28.2314M35.7153 36.141C35.1323 35.3607 34.3884 34.7151 33.5342 34.2479C32.6799 33.7807 31.7353 33.5029 30.7644 33.4333C29.7935 33.3637 28.819 33.504 27.9069 33.8445C26.9949 34.1851 26.1667 34.718 25.4785 35.4071L21.4056 39.4842C20.169 40.7658 19.4848 42.4822 19.5003 44.2639C19.5157 46.0456 20.2296 47.7499 21.4883 49.0097C22.7469 50.2696 24.4495 50.9843 26.2293 50.9997C28.0092 51.0152 29.7239 50.3303 31.0042 49.0925L33.3258 46.7686" stroke="white" stroke-width="3" stroke-linecap="round" stroke-linejoin="round"/>
</svg>
